#!OML:ASF I:\salsa\salsa 7_09\Patient 1\Session 1\dancermale.ASF
:FULLY-SPECIFIED
:DEGREES
1773
root 4.93613 17.0483 -3.02495 7.70362 -9.11273 717.936
lowerback -1.14746 -0.166713 3.23413
upperback -0.868274 -0.254345 -2.70217
thorax -0.27524 -0.150734 -4.60448
lowerneck -5.71689 6.95461 6.6067
upperneck 22.3523 10.2026 -6.70048
head 8.56821 4.74096 -2.39089
rclavicle 1.22253e-014 -2.70347e-014
rhumerus -17.9848 4.83199 -86.5807
rradius 96.1318
rwrist 42.8105
rhand -30.8611 -10.5719
rfingers 7.12502
rthumb -4.14899 -40.5112
lclavicle 1.22253e-014 -2.70347e-014
lhumerus -26.2192 -59.1546 130.144
lradius 57.966
lwrist 15.111
lhand -8.6127 44.1378
lfingers 7.12502
lthumb 17.3192 -646.614
rfemur -21.3749 2.53475 18.6234
rtibia 37.9356
rfoot -21.3705 16.8879
rtoes -7.05621
lfemur -35.3889 1.28929 -19.9323
ltibia 27.5757
lfoot -8.37512 -6.06802
ltoes -23.8966
1774
root 4.87662 17.0956 -3.13632 8.17671 -8.51793 717.849
lowerback -1.12534 -0.0529661 3.07553
upperback -0.96937 -0.100703 -2.56685
thorax -0.374713 -0.0763451 -4.37213
lowerneck -5.53038 7.53831 6.76713
upperneck 22.5559 11.0161 -6.64407
head 8.67345 5.14459 -2.31467
rclavicle -2.28602e-014 8.74653e-015
rhumerus -19.7827 5.6546 -86.6958
rradius 98.5522
rwrist 43.4293
rhand -30.9673 -10.5229
rfingers 7.12502
rthumb -4.25151 -40.4602
lclavicle -2.28602e-014 8.74653e-015
lhumerus -27.9988 -60.1601 131.621
lradius 59.18
lwrist 15.9308
lhand -7.85972 43.9032
lfingers 7.12502
lthumb 18.0438 -646.914
rfemur -21.6846 1.6002 19.1255
rtibia 37.0059
rfoot -20.7677 16.0279
rtoes -5.41291
lfemur -36.024 1.29124 -19.324
ltibia 32.2998
lfoot -11.3416 -2.90416
ltoes -22.6311
1775
root 4.80883 17.1437 -3.2316 8.49522 -8.07732 717.826
lowerback -1.13821 0.107057 2.75292
upperback -1.02676 0.115183 -2.48499
thorax -0.405407 0.0324631 -4.10231
lowerneck -5.47965 8.01511 6.84324
upperneck 22.8139 11.6412 -6.37779
head 8.79059 5.46732 -2.16788
rclavicle 2.89232e-014 -1.59028e-014
rhumerus -21.4572 6.54357 -87.0265
rradius 100.68
rwrist 44.1649
rhand -31.2288 -10.3641
rfingers 7.12502
rthumb -4.50405 -40.2962
lclavicle 2.89232e-014 -1.59028e-014
lhumerus -29.9529 -61.1988 133.16
lradius 60.3313
lwrist 16.6457
lhand -7.23515 43.9078
lfingers 7.12502
lthumb 18.6447 -646.966
rfemur -21.6736 0.998851 19.5769
rtibia 35.8707
rfoot -20.2857 15.4396
rtoes -3.89733
lfemur -36.1519 1.50524 -18.8545
ltibia 37.0706
lfoot -13.4777 0.370861
ltoes -19.229
1776
root 4.73705 17.1878 -3.3152 8.77084 -7.56631 717.821
lowerback -1.22599 0.25061 2.4452
upperback -1.09391 0.307441 -2.47798
thorax -0.408751 0.129594 -3.91883
lowerneck -5.33427 8.35697 7.0224
upperneck 22.8818 12.0835 -6.23875
head 8.8249 5.7066 -2.10498
rclavicle -5.96354e-016 6.36111e-015
rhumerus -23.1428 7.512 -87.5562
rradius 102.619
rwrist 44.8832
rhand -31.4703 -10.3384
rfingers 7.12502
rthumb -4.73722 -40.2654
lclavicle -5.96354e-016 6.36111e-015
lhumerus -32.1759 -62.3026 134.784
lradius 61.5236
lwrist 17.5151
lhand -6.98073 44.0999
lfingers 7.12502
lthumb 18.8894 -646.797
rfemur -21.4418 0.645591 20.0394
rtibia 34.4897
rfoot -20.0279 14.436
rtoes -3.46085
lfemur -36.0323 1.95375 -18.5974
ltibia 41.6384
lfoot -14.1156 3.16192
ltoes -15.2229
1777
root 4.66695 17.227 -3.39359 9.06672 -6.86272 717.844
lowerback -1.40579 0.286083 2.22164
upperback -1.16847 0.353659 -2.5494
thorax -0.381215 0.153242 -3.86517
lowerneck -5.20217 8.65423 7.25636
upperneck 22.8843 12.4538 -6.11571
head 8.83873 5.91534 -2.06382
rclavicle 1.30204e-014 -3.73715e-014
rhumerus -24.8443 8.77064 -88.3688
rradius 104.387
rwrist 45.6896
rhand -32.0597 -10.3111
rfingers 7.12502
rthumb -5.30638 -40.2247
lclavicle 1.30204e-014 -3.73715e-014
lhumerus -34.3324 -63.4575 136.088
lradius 62.7837
lwrist 18.5371
lhand -5.49249 43.645
lfingers 7.12502
lthumb 20.3202 -647.398
rfemur -21.1093 0.536598 20.4629
rtibia 32.9581
rfoot -20.1157 12.6277
rtoes -6.31705
lfemur -35.8031 2.63086 -18.5606
ltibia 46.0374
lfoot -14.4677 5.97183
ltoes -11.6849
1778
root 4.59893 17.2597 -3.47117 9.39055 -5.91745 717.751
lowerback -1.58873 0.251373 2.22671
upperback -1.26992 0.30405 -2.66173
thorax -0.38652 0.126353 -3.9847
lowerneck -5.23863 8.87338 7.53088
upperneck 23.002 12.6797 -5.86994
head 8.90724 6.06461 -1.99491
rclavicle -1.40143e-014 7.95139e-015
rhumerus -26.5843 10.0733 -89.3991
rradius 105.948
rwrist 46.5009
rhand -32.7939 -10.2849
rfingers 7.12502
rthumb -6.0152 -40.1796
lclavicle -1.40143e-014 7.95139e-015
lhumerus -36.4805 -64.6371 137.193
lradius 64.0664
lwrist 19.5864
lhand -5.00839 43.5972
lfingers 7.12502
lthumb 20.7853 -647.496
rfemur -20.7068 0.656478 21.0075
rtibia 31.3264
rfoot -20.3579 10.3049
rtoes -11.4444
lfemur -35.4144 3.543 -18.4914
ltibia 50.093
lfoot -15.1248 7.12007
ltoes -8.36299
